<?xml version="1.0" encoding="utf-8"?>
<!-- Generator: Adobe Illustrator 26.2.1, SVG Export Plug-In . SVG Version: 6.00 Build 0)  -->
<svg version="1.1" id="레이어_1" xmlns="http://www.w3.org/2000/svg" xmlns:xlink="http://www.w3.org/1999/xlink" x="0px"
	 y="0px" viewBox="0 0 541.1 120" style="enable-background:new 0 0 541.1 120;" xml:space="preserve">
<style type="text/css">
	.st0{fill:#FFFFFF;}
</style>
<g>
	<path class="st0" d="M160.2,10.5l-39.2,100h33.3l4.7-13.2h37.6l4.7,13.2h33.3l-39.2-100H160.2z M166.6,73.2L177.8,42L189,73.2
		H166.6z"/>
	<polygon class="st0" points="373.4,72.5 419,72.5 419,48.5 373.4,48.5 373.4,35 419.5,35 419.5,10.5 341.5,10.5 341.5,110.5 
		420.5,110.5 420.5,86 373.4,86 	"/>
	<polygon class="st0" points="274.4,76.2 250.9,10.5 217.5,10.5 256.7,110.5 292,110.5 331.3,10.5 297.9,10.5 	"/>
	<polygon class="st0" points="78.3,64 41.1,10.5 10.2,10.5 10.2,110.5 42.5,110.5 42.5,57 79.8,110.5 110.7,110.5 110.7,10.5 
		78.3,10.5 	"/>
	<path class="st0" d="M506,76.2l3-1.3c11.6-4.9,17.5-15.4,17.5-28.7c0-12.6-4.6-22-13.7-27.8c-8.4-5.4-19.4-7.9-34.5-7.9h-42.2v100
		h31.4V82.5h11.3l19.1,27.9h33.3L506,76.2z M484.2,57H467V36h17.2c5.8,0,10.5,4.7,10.5,10.5C494.7,52.3,490,57,484.2,57z"/>
</g>
</svg>
