<svg id="Background" xmlns="http://www.w3.org/2000/svg" viewBox="0 0 500 350"><title>Artboard 21 copy 49</title><rect width="500" height="350" style="fill:#2e38a3"/><rect x="162.46" y="83.7" width="175.07" height="159.27" style="fill:#2e38a3"/><path d="M264.54,165.39a14.54,14.54,0,0,0-29.07,0v15.87h29.07Z" style="fill:#6ec9f2"/><rect x="235.47" y="171.42" width="29.07" height="9.85" style="fill:#42a6cf"/><polygon points="249.89 171.45 242.62 181.26 257.38 181.26 249.89 171.45" style="fill:#1a8ac2"/><path d="M238.13,157.66a1.76,1.76,0,0,1,1.32.61,1.73,1.73,0,0,1,3.25.56,1.72,1.72,0,0,1,.5-.11,1.78,1.78,0,0,1,0,3.56,1.74,1.74,0,0,1-.56-.11,1.74,1.74,0,0,1-3.09.42,1.73,1.73,0,0,1-3.08-.44,1.79,1.79,0,0,1-.65.13h0a14.21,14.21,0,0,1,1.85-4.55A1.84,1.84,0,0,1,238.13,157.66Z" style="fill:#dcf3f9"/><path d="M260.83,158.11a5.7,5.7,0,0,0-3.74-.3,1.78,1.78,0,1,1,0-3.56,1.75,1.75,0,0,1,.65.13,1.81,1.81,0,0,1,.63-.86,14.71,14.71,0,0,1,4.54,5.21,1.6,1.6,0,0,1-.66.15A1.72,1.72,0,0,1,260.83,158.11Z" style="fill:#dcf3f9"/><circle cx="251.03" cy="159.55" r="2.27" style="fill:#fff"/><path d="M235.47,171.45h29.07V169a3.67,3.67,0,0,1-1.57-.34,4.12,4.12,0,0,0-1.2-.57c-.35-.06-.71.05-1.06,0a10.43,10.43,0,0,1-1.47-.62c-1.41-.44-2.67,1-4.11,1.34a10.46,10.46,0,0,0-1.36.24,7.93,7.93,0,0,0-1.6,1.14,6.46,6.46,0,0,1-1.81.77,1.25,1.25,0,0,1-.43.07,1,1,0,0,1-.48-.24L246.9,169a3.77,3.77,0,0,0-1.89-.87,4.24,4.24,0,0,0-1.78.49,15.58,15.58,0,0,1-7.76,1.08Z" style="fill:#1466b8"/><polygon points="448.81 350 264.59 181.26 235.41 181.26 51.2 350 448.81 350" style="fill:#1a8ac2"/><polygon points="354.62 350 257.39 181.26 242.62 181.26 145.39 350 354.62 350" style="fill:#1466b8"/><polygon points="261.74 182.58 262.01 184.3 236.81 184.3 237.07 182.58 261.74 182.58" style="fill:#1a8ac2"/><polygon points="262.29 186.09 262.58 187.97 236.23 187.97 236.53 186.09 262.29 186.09" style="fill:#1a8ac2"/><polygon points="262.88 189.94 263.2 192 235.61 192 235.93 189.94 262.88 189.94" style="fill:#1a8ac2"/><polygon points="270.31 194.16 270.83 196.42 227.98 196.42 228.5 194.16 270.31 194.16" style="fill:#1a8ac2"/><polygon points="273.27 198.81 273.89 201.31 224.92 201.31 225.54 198.81 273.27 198.81" style="fill:#1a8ac2"/><polygon points="274.55 203.95 275.25 206.74 223.57 206.74 224.26 203.95 274.55 203.95" style="fill:#1a8ac2"/><polygon points="275.98 209.69 276.76 212.81 222.06 212.81 222.83 209.69 275.98 209.69" style="fill:#1a8ac2"/><polygon points="277.58 216.11 280.6 219.62 220.36 219.62 221.23 216.11 277.58 216.11" style="fill:#1a8ac2"/><polygon points="290.63 223.36 291.99 227.34 206.82 227.34 208.19 223.36 290.63 223.36" style="fill:#1a8ac2"/><polygon points="290.1 231.6 291.54 236.16 207.27 236.16 208.72 231.6 290.1 231.6" style="fill:#1a8ac2"/><polygon points="298.02 241.05 299.88 246.32 198.94 246.32 200.79 241.05 298.02 241.05" style="fill:#1a8ac2"/><polygon points="299.76 252 301.84 258.16 196.97 258.16 199.05 252 299.76 252" style="fill:#1a8ac2"/><polygon points="311.08 264.85 313.86 272.13 184.96 272.13 187.74 264.85 311.08 264.85" style="fill:#1a8ac2"/><polygon points="316.82 280.11 320.16 288.87 178.65 288.87 181.99 280.11 316.82 280.11" style="fill:#1a8ac2"/><polygon points="327.37 298.55 331.66 309.3 167.16 309.3 171.44 298.55 327.37 298.55" style="fill:#1a8ac2"/><polygon points="346.43 321.28 352.43 334.75 146.38 334.75 152.38 321.28 346.43 321.28" style="fill:#1a8ac2"/></svg>