<svg id="Background" xmlns="http://www.w3.org/2000/svg" viewBox="0 0 500 350"><title>Artboard 21 copy 48</title><rect width="500" height="350" style="fill:#f0baba"/><rect x="0.22" y="278.51" width="499.78" height="71.49" style="fill:#42a6cf"/><path d="M380.73,157.84c0-72.14-58.48-129.1-130.62-129.1s-130.62,57-130.62,129.1V278.51H380.73Z" style="fill:#fcc"/><path d="M359.76,158.8a109.65,109.65,0,0,0-219.29,0V278.5H359.76Z" style="fill:#2e38a3"/><path d="M255.58,177.13a5.47,5.47,0,0,0-10.93,0v6h10.93Z" style="fill:#6ec9f2"/><polygon points="140.47 278.51 244.63 183.09 255.59 183.09 359.76 278.5 140.47 278.51" style="fill:#1a8ac2"/><polygon points="151.16 350 247.34 183.09 252.89 183.09 349.06 349.99 151.16 350" style="fill:#1466b8"/><polygon points="192.36 278.51 151.16 350 349.06 349.99 307.87 278.51 192.36 278.51" style="fill:#1a8ac2"/><polygon points="254.52 183.59 254.62 184.24 245.15 184.24 245.25 183.59 254.52 183.59" style="fill:#1a8ac2"/><polygon points="254.73 184.91 254.84 185.62 244.94 185.62 245.05 184.91 254.73 184.91" style="fill:#1a8ac2"/><polygon points="254.95 186.35 255.07 187.13 244.71 187.13 244.82 186.35 254.95 186.35" style="fill:#1a8ac2"/><polygon points="257.74 187.94 257.94 188.79 241.84 188.79 242.03 187.94 257.74 187.94" style="fill:#1a8ac2"/><polygon points="258.86 189.69 259.09 190.63 240.69 190.63 240.92 189.69 258.86 189.69" style="fill:#1a8ac2"/><polygon points="259.34 191.62 259.6 192.67 240.18 192.67 240.44 191.62 259.34 191.62" style="fill:#1a8ac2"/><polygon points="259.87 193.78 260.17 194.95 239.61 194.95 239.9 193.78 259.87 193.78" style="fill:#1a8ac2"/><polygon points="260.48 196.19 261.61 197.51 238.97 197.51 239.3 196.19 260.48 196.19" style="fill:#1a8ac2"/><polygon points="265.38 198.91 265.89 200.41 233.89 200.41 234.4 198.91 265.38 198.91" style="fill:#1a8ac2"/><polygon points="265.18 202.01 265.72 203.72 234.05 203.72 234.6 202.01 265.18 202.01" style="fill:#1a8ac2"/><polygon points="268.16 205.56 268.85 207.54 230.92 207.54 231.62 205.56 268.16 205.56" style="fill:#1a8ac2"/><polygon points="268.81 209.68 269.59 211.99 230.18 211.99 230.97 209.68 268.81 209.68" style="fill:#1a8ac2"/><polygon points="273.06 214.5 274.11 217.24 225.67 217.24 226.71 214.5 273.06 214.5" style="fill:#1a8ac2"/><polygon points="275.22 220.24 276.48 223.53 223.3 223.53 224.55 220.24 275.22 220.24" style="fill:#1a8ac2"/><polygon points="279.18 227.17 280.8 231.21 218.98 231.21 220.59 227.17 279.18 227.17" style="fill:#1a8ac2"/><polygon points="286.35 235.71 288.6 240.77 211.17 240.77 213.43 235.71 286.35 235.71" style="fill:#1a8ac2"/><polygon points="294.57 246.5 297.71 253.03 202.06 253.03 205.21 246.5 294.57 246.5" style="fill:#1a8ac2"/><polygon points="312.18 260.56 317.29 269.32 182.49 269.32 187.59 260.56 312.18 260.56" style="fill:#1a8ac2"/><polygon points="318.09 278.5 324.78 290.78 175 290.78 181.68 278.5 318.09 278.5" style="fill:#42a6cf"/><polygon points="327.33 307.01 336.77 325.71 163 325.71 172.45 307.01 327.33 307.01" style="fill:#42a6cf"/><rect x="244.65" y="179.4" width="10.92" height="3.7" style="fill:#42a6cf"/><polygon points="250.07 179.41 247.34 183.09 252.88 183.09 250.07 179.41" style="fill:#1a8ac2"/><path d="M245.65,174.22a.67.67,0,0,1,.5.23.65.65,0,0,1,.57-.34.66.66,0,0,1,.65.55.58.58,0,0,1,.19,0,.67.67,0,0,1,0,1.34.78.78,0,0,1-.22,0,.65.65,0,0,1-1.15.16.66.66,0,0,1-1.16-.17.7.7,0,0,1-.25.05h0a5.44,5.44,0,0,1,.69-1.71Z" style="fill:#dcf3f9"/><path d="M254.18,174.4a.65.65,0,0,1-.54.28.66.66,0,0,1-.62-.45.7.7,0,0,1-.25.05.67.67,0,0,1,0-1.34.7.7,0,0,1,.25.05.64.64,0,0,1,.24-.32,5.54,5.54,0,0,1,1.7,2,.66.66,0,0,1-.25.05A.64.64,0,0,1,254.18,174.4Z" style="fill:#dcf3f9"/><circle cx="250.5" cy="174.93" r="0.85" style="fill:#fff"/><path d="M244.65,179.41h10.93v-.93a1.38,1.38,0,0,1-.6-.13,1.54,1.54,0,0,0-.45-.21c-.13,0-.26,0-.4,0a5.11,5.11,0,0,1-.55-.24c-.53-.16-1,.39-1.54.51a4.17,4.17,0,0,0-.51.09,2.75,2.75,0,0,0-.6.43,2.51,2.51,0,0,1-.68.28.34.34,0,0,1-.17,0,.51.51,0,0,1-.18-.09l-1-.68a1.38,1.38,0,0,0-.7-.33,1.71,1.71,0,0,0-.67.18,5.84,5.84,0,0,1-2.92.41Z" style="fill:#1466b8"/></svg>