<svg id="Background" xmlns="http://www.w3.org/2000/svg" viewBox="0 0 500 350"><title>Artboard 21 copy 50</title><rect width="500" height="350" style="fill:#2e38a3"/><path d="M410.36,175a160.29,160.29,0,1,0-320.57,0V350H410.36Z" style="fill:#6ec9f2"/><rect x="89.79" y="241.44" width="320.56" height="108.56" style="fill:#42a6cf"/><polygon points="248.8 241.8 168.58 350 331.39 350 248.8 241.8" style="fill:#1a8ac2"/><path d="M118.05,89.6a19.31,19.31,0,0,1,14.54,6.73,19.12,19.12,0,0,1,35.82,6.17A19.49,19.49,0,1,1,174,140.63a19.1,19.1,0,0,1-6.24-1.26,19.12,19.12,0,0,1-34,4.59,19.28,19.28,0,0,1-15.7,8.45,19.49,19.49,0,0,1-18.34-13.22,19.73,19.73,0,0,1-7.18,1.44l-.12,0A159.65,159.65,0,0,1,112.9,90.43,19,19,0,0,1,118.05,89.6Z" style="fill:#dcf3f9"/><path d="M372.56,94.66a19.11,19.11,0,0,1-34-4.77,19.63,19.63,0,1,1,0-36.38,20,20,0,0,1,7-9.47,160.6,160.6,0,0,1,50,57.47,18.7,18.7,0,0,1-7.27,1.6A19.29,19.29,0,0,1,372.56,94.66Z" style="fill:#dcf3f9"/><circle cx="261.56" cy="110.47" r="25.06" style="fill:#fff"/><path d="M89.79,241.8H410.36V214.59c-6-.15-11.95-1.09-17.33-3.79-4.4-2.22-8.4-5.59-13.28-6.32-3.86-.59-7.82.56-11.7,0-5.81-.78-10.5-5.16-16.12-6.88-15.57-4.79-29.43,11.51-45.37,14.87-4.95,1.05-10.18.83-14.94,2.55-6.84,2.46-11.66,8.49-17.64,12.62s-13.05,6.33-20,8.46a11.62,11.62,0,0,1-4.72.76c-2-.21-3.7-1.42-5.33-2.58L215.8,214.24c-6.31-4.51-13.08-9.19-20.84-9.57-6.81-.33-13.26,2.74-19.55,5.37a172.5,172.5,0,0,1-85.62,11.88Z" style="fill:#1466b8"/><path d="M0,0V350H89.79V175a160.29,160.29,0,1,1,320.57,0V350H500V0Z" style="fill:#2e38a3"/></svg>